<svg width="114" height="55" viewBox="0 0 114 55" fill="none" xmlns="http://www.w3.org/2000/svg">
<path d="M31.5651 10.3735H31.6105C31.8599 9.90063 32.1314 9.44971 32.4041 9.04278L34.6484 5.72871H38.7967L34.8302 10.1939L39.3643 16.7548H35.125L32.4274 12.2224L31.5663 13.3051V16.7548H28.1206V0.746597H31.5663V10.3748L31.5651 10.3735Z" fill="black"/>
<path d="M44.1906 2.66277C44.1906 3.60982 43.488 4.37602 42.332 4.37602C41.2437 4.37602 40.5422 3.60982 40.5422 2.66277C40.5422 1.71571 41.267 0.949516 42.3775 0.949516C43.488 0.949516 44.1685 1.69372 44.1906 2.66277ZM40.6319 16.7549V5.72877H44.0776V16.7549H40.6319Z" fill="black"/>
<path d="M46.8433 9.24685C46.8433 7.87087 46.7979 6.72097 46.7524 5.72992H49.7449L49.9033 7.26354H49.9709C50.4242 6.54256 51.5347 5.48186 53.3932 5.48186C55.6597 5.48186 57.3598 6.99225 57.3598 10.2391V16.7561H53.9141V10.646C53.9141 9.22608 53.4154 8.25581 52.1685 8.25581C51.2165 8.25581 50.6502 8.90958 50.4008 9.54135C50.3099 9.7662 50.2878 10.0827 50.2878 10.398V16.7561H46.8433V9.24685Z" fill="black"/>
<path d="M63.8432 2.75315V5.72996H66.3135V8.25584H63.8432V12.2469C63.8432 13.5777 64.1835 14.1862 65.203 14.1862C65.6784 14.1862 65.9057 14.1642 66.2226 14.0958L66.2447 16.6889C65.8136 16.8465 64.9758 16.9822 64.0238 16.9822C62.9133 16.9822 61.9846 16.5985 61.4171 16.0351C60.782 15.3813 60.4651 14.3219 60.4651 12.7663V8.25706H58.9922V5.73118H60.4651V3.67943L63.842 2.75438L63.8432 2.75315Z" fill="black"/>
<path d="M79.144 11.1177C79.144 15.154 76.2658 17.0029 73.2955 17.0029C70.0537 17.0029 67.5613 14.8827 67.5613 11.3206C67.5613 7.75843 69.9186 5.45861 73.4994 5.45861C76.8776 5.45861 79.144 7.78164 79.144 11.1177ZM71.12 11.2314C71.12 13.1255 71.9135 14.5454 73.3864 14.5454C74.7463 14.5454 75.5853 13.2147 75.5853 11.2081C75.5853 9.58532 74.9502 7.91606 73.3864 7.91606C71.8226 7.91606 71.12 9.60732 71.12 11.2301V11.2314Z" fill="black"/>
<path d="M81.2743 9.24685C81.2743 7.87087 81.2288 6.72097 81.1833 5.72992H84.1758L84.3342 7.26354H84.4018C84.8551 6.54256 85.9656 5.48186 87.8242 5.48186C90.0906 5.48186 91.7907 6.99225 91.7907 10.2391V16.7561H88.345V10.646C88.345 9.22608 87.8463 8.25581 86.5994 8.25581C85.6474 8.25581 85.0811 8.90958 84.8317 9.54135C84.7408 9.7662 84.7187 10.0827 84.7187 10.398V16.7561H81.273V9.24685H81.2743Z" fill="black"/>
<path d="M97.2103 12.3361C97.3012 13.7561 98.7286 14.4331 100.339 14.4331C101.517 14.4331 102.469 14.2754 103.399 13.9601L103.852 16.2832C102.72 16.7573 101.337 16.9822 99.8404 16.9822C96.0777 16.9822 93.9243 14.818 93.9243 11.3683C93.9243 8.57233 95.6699 5.4831 99.5234 5.4831C103.104 5.4831 104.464 8.25705 104.464 10.9846C104.464 11.5711 104.397 12.0893 104.351 12.3373H97.2103V12.3361ZM101.268 9.99107C101.268 9.15645 100.905 7.75847 99.3183 7.75847C97.8675 7.75847 97.2779 9.08924 97.1882 9.99107H101.268Z" fill="black"/>
<path d="M25.8176 5.77886C24.0118 4.73893 22.2122 4.36989 20.2725 4.83669C20.286 4.70838 20.2946 4.57763 20.2946 4.44565C20.2946 2.43179 18.6547 0.801635 16.6315 0.801635C15.9559 0.801635 15.3245 0.987379 14.7803 1.30388C13.8725 0.49369 12.6723 0 11.3555 0C9.05095 0 7.10146 1.51162 6.45531 3.59391C5.92832 3.39351 5.35957 3.27986 4.76256 3.27986C2.1313 3.27986 0 5.40004 0 8.01757C0 9.98866 1.20999 11.6762 2.93099 12.3911C2.93099 15.4095 5.39151 17.8571 8.42692 17.8571C9.90101 17.8571 11.2388 17.2779 12.2252 16.3382C12.7669 16.6522 13.3946 16.8368 14.0678 16.8368C15.5542 16.8368 16.8305 15.9545 17.4054 14.6897C19.6325 13.9919 21.2479 11.9219 21.2479 9.47542C21.2479 8.81431 21.1299 8.18132 20.9137 7.59476C22.2048 6.57316 23.6224 6.04281 25.8176 5.78008V5.77886Z" fill="#FFBF00"/>
<rect y="27.8571" width="113.69" height="26.1905" rx="13.0952" fill="black"/>
<path d="M15.1749 36.8425V38.4029H5.57049V36.8425H15.1749ZM11.1419 35.5568V45.9963H9.44961V35.5568H11.1419ZM10.9661 41.0733C10.695 41.5641 10.3873 42.0366 10.043 42.4908C9.70602 42.9451 9.33239 43.3663 8.92214 43.7546C8.51921 44.1429 8.08697 44.4982 7.62544 44.8205C7.17122 45.1355 6.69137 45.4103 6.18587 45.6447C6.10529 45.5055 5.99906 45.348 5.86719 45.1722C5.73532 45.0037 5.59613 44.8388 5.44961 44.6777C5.31042 44.5092 5.17855 44.37 5.05401 44.2601C5.53752 44.0769 6.00639 43.8571 6.4606 43.6007C6.91481 43.337 7.33972 43.044 7.73533 42.7216C8.13826 42.3993 8.50089 42.0549 8.82324 41.6886C9.14558 41.3223 9.41664 40.9487 9.63642 40.5678L10.9661 41.0733ZM11.076 40.6886C11.3764 41.1648 11.761 41.6227 12.2298 42.0623C12.6987 42.5018 13.2225 42.9011 13.8013 43.2601C14.38 43.6191 14.9844 43.9121 15.6144 44.1392C15.4826 44.2491 15.3397 44.3919 15.1859 44.5678C15.0394 44.7436 14.8965 44.9231 14.7573 45.1062C14.6254 45.2894 14.5155 45.4579 14.4276 45.6117C13.7903 45.3114 13.1822 44.9377 12.6035 44.4908C12.032 44.044 11.5046 43.5421 11.021 42.9854C10.5448 42.4212 10.1273 41.8278 9.76829 41.2051L11.076 40.6886ZM7.82324 39.2601C7.98441 39.3919 8.1639 39.5385 8.3617 39.6996C8.56683 39.8608 8.76097 40.022 8.94412 40.1832C9.12727 40.3443 9.27745 40.4872 9.39467 40.6117L8.33972 41.7436C8.23716 41.6117 8.09796 41.4615 7.92214 41.293C7.74631 41.1172 7.5595 40.9414 7.3617 40.7656C7.17122 40.5824 6.99174 40.4176 6.82324 40.2711L7.82324 39.2601ZM8.81225 38.6557C8.60712 39.4542 8.31042 40.1905 7.92214 40.8645C7.54119 41.5385 7.0943 42.0916 6.58148 42.5238C6.49357 42.4286 6.37269 42.315 6.21884 42.1832C6.07232 42.044 5.91848 41.9121 5.7573 41.7875C5.60346 41.6557 5.46793 41.5531 5.35071 41.4799C5.8269 41.1355 6.22617 40.6923 6.54851 40.1502C6.87818 39.6007 7.11628 39.0037 7.2628 38.359L8.81225 38.6557ZM13.098 39.37C13.3177 39.5311 13.5668 39.718 13.8452 39.9304C14.1236 40.1355 14.3947 40.3407 14.6584 40.5458C14.9295 40.7436 15.1492 40.9194 15.3177 41.0733L14.2188 42.1722C14.065 42.011 13.8599 41.8242 13.6035 41.6117C13.3544 41.3993 13.0906 41.1795 12.8122 40.9524C12.5412 40.7253 12.2921 40.5202 12.065 40.337L13.098 39.37ZM13.9771 38.6447C13.8232 39.2894 13.6035 39.8901 13.3177 40.4469C13.032 40.9963 12.7097 41.4506 12.3507 41.8095C12.2481 41.7289 12.1126 41.6374 11.9441 41.5348C11.7829 41.4249 11.6144 41.3223 11.4386 41.2271C11.2628 41.1245 11.1126 41.044 10.9881 40.9854C11.347 40.685 11.6474 40.304 11.8892 39.8425C12.1383 39.3736 12.3177 38.8791 12.4276 38.359L13.9771 38.6447ZM24.6804 39.315V40.7875H18.9331V39.315H24.6804ZM24.6804 41.6447V43.1172H18.9331V41.6447H24.6804ZM24.6804 43.9854V45.4579H18.9331V43.9854H24.6804ZM26.054 36.9414V45.9854H24.3507V38.4689H19.4606V45.9854H17.8452V36.9414H26.054ZM22.8672 35.7436C22.728 36.1245 22.5815 36.4908 22.4276 36.8425C22.2738 37.1941 22.1346 37.4945 22.0101 37.7436L20.5375 37.4908C20.5961 37.293 20.6474 37.0843 20.6914 36.8645C20.7427 36.6374 20.7866 36.4103 20.8232 36.1832C20.8672 35.956 20.8965 35.7436 20.9112 35.5458L22.8672 35.7436ZM37.4057 36.1722V45.8755H35.6694V37.7875H31.1199V45.8755H29.4716V36.1722H37.4057ZM36.3947 39.7985V41.381H30.6035V39.7985H36.3947ZM36.3947 43.5238V45.1392H30.6035V43.5238H36.3947ZM49.8672 37.5897V39.2161H40.065V37.5897H49.8672ZM47.9221 42.6227V44.2491H41.9331V42.6227H47.9221ZM45.8013 35.5568V45.9963H44.098V35.5568H45.8013ZM44.2848 38.6007C44.043 39.3919 43.7536 40.1465 43.4166 40.8645C43.0796 41.5824 42.695 42.2418 42.2628 42.8425C41.8306 43.4432 41.347 43.967 40.8123 44.4139C40.7243 44.2821 40.6108 44.1355 40.4716 43.9744C40.3324 43.8132 40.1895 43.6557 40.043 43.5018C39.8965 43.348 39.761 43.2198 39.6364 43.1172C40.1199 42.7656 40.5668 42.326 40.9771 41.7985C41.3873 41.2711 41.7463 40.6996 42.054 40.0843C42.369 39.4615 42.6218 38.8315 42.8123 38.1941L44.2848 38.6007ZM47.054 38.2271C47.2445 38.8352 47.4936 39.4359 47.8013 40.0293C48.109 40.6154 48.4643 41.1612 48.8672 41.6667C49.2775 42.1648 49.717 42.5897 50.1859 42.9414C50.054 43.0513 49.9038 43.1905 49.7353 43.359C49.5742 43.5202 49.4203 43.6886 49.2738 43.8645C49.1273 44.0403 49.0064 44.2051 48.9112 44.359C48.4057 43.9194 47.9478 43.4029 47.5375 42.8095C47.1273 42.2088 46.761 41.5531 46.4386 40.8425C46.1163 40.1319 45.8342 39.3956 45.5925 38.6337L47.054 38.2271ZM56.043 37.348V44.8755H52.6474V43.4799H54.6035V38.7326H52.6474V37.348H56.043ZM53.1639 37.348V45.6557H51.7243V37.348H53.1639ZM55.2848 40.2161V41.5897H52.6035V40.2161H55.2848ZM54.9661 35.7985C54.8342 36.1868 54.6987 36.5678 54.5595 36.9414C54.4276 37.315 54.3068 37.6337 54.1969 37.8974L52.9221 37.6227C52.9661 37.4249 53.0064 37.2051 53.043 36.9634C53.087 36.7216 53.1236 36.4799 53.1529 36.2381C53.1895 35.989 53.2115 35.7619 53.2188 35.5568L54.9661 35.7985ZM60.5485 37.2381V38.6886H57.4276V37.2381H60.5485ZM61.4716 37.2381C61.4716 37.2381 61.4716 37.2821 61.4716 37.37C61.4716 37.4579 61.4716 37.5568 61.4716 37.6667C61.4716 37.7766 61.4679 37.8645 61.4606 37.9304C61.4313 39.1538 61.3983 40.1941 61.3617 41.0513C61.3251 41.9084 61.2811 42.6191 61.2298 43.1832C61.1786 43.7399 61.1163 44.1795 61.043 44.5018C60.9698 44.8169 60.8745 45.0513 60.7573 45.2051C60.5888 45.4469 60.413 45.6117 60.2298 45.6996C60.0467 45.7949 59.8342 45.8645 59.5925 45.9084C59.3727 45.9451 59.1016 45.9634 58.7793 45.9634C58.4643 45.9634 58.1419 45.9597 57.8123 45.9524C57.8049 45.7399 57.75 45.4835 57.6474 45.1832C57.5522 44.8828 57.4313 44.6227 57.2848 44.4029C57.6364 44.4322 57.9624 44.4506 58.2628 44.4579C58.5705 44.4652 58.7976 44.4689 58.9441 44.4689C59.054 44.4689 59.1419 44.4542 59.2079 44.4249C59.2811 44.3956 59.3544 44.3443 59.4276 44.2711C59.5155 44.1758 59.5888 43.9817 59.6474 43.6886C59.7134 43.3883 59.7646 42.9707 59.8013 42.4359C59.8452 41.8938 59.8819 41.2198 59.9112 40.4139C59.9478 39.6007 59.9771 38.641 59.9991 37.5348V37.2381H61.4716ZM58.8892 35.9524C58.7427 36.4872 58.5632 37.0256 58.3507 37.5678C58.1456 38.1026 57.9221 38.6081 57.6804 39.0843C57.446 39.5604 57.2042 39.9744 56.9551 40.326C56.8599 40.2381 56.7317 40.1355 56.5705 40.0183C56.4093 39.8938 56.2445 39.7766 56.076 39.6667C55.9075 39.5495 55.761 39.4579 55.6364 39.3919C55.8855 39.0916 56.1163 38.7363 56.3287 38.326C56.5485 37.9158 56.7427 37.4762 56.9112 37.0073C57.087 36.5311 57.2335 36.0586 57.3507 35.5897L58.8892 35.9524ZM58.043 39.8865C58.2115 40.1355 58.391 40.4103 58.5815 40.7106C58.7793 41.0037 58.9661 41.293 59.1419 41.5788C59.3251 41.8571 59.4679 42.1062 59.5705 42.326L58.2188 43.1502C58.1309 42.9231 58.0027 42.663 57.8342 42.37C57.6731 42.0769 57.5009 41.7766 57.3177 41.4689C57.1346 41.1538 56.9588 40.8608 56.7903 40.5897L58.043 39.8865Z" fill="white"/>
<path d="M72.021 36.1722V45.8755H70.2848V37.7875H65.7353V45.8755H64.087V36.1722H72.021ZM71.0101 39.7985V41.381H65.2188V39.7985H71.0101ZM71.0101 43.5238V45.1392H65.2188V43.5238H71.0101ZM80.5155 41.0513V45.9963H78.8562V41.0513H80.5155ZM78.1199 40.2711H80.9002V39.7985H78.1199V40.2711ZM82.5265 38.6996V41.37H76.5925V38.6996H82.5265ZM82.9112 41.8865V43.304H77.1199V45.5128H75.4936V41.8865H82.9112ZM83.8123 44.1282C83.8123 44.4725 83.7683 44.7473 83.6804 44.9524C83.5925 45.1648 83.424 45.3297 83.1749 45.4469C82.9258 45.5568 82.6474 45.6227 82.3397 45.6447C82.032 45.6667 81.6914 45.6777 81.3177 45.6777C81.2811 45.4579 81.2115 45.2125 81.109 44.9414C81.0137 44.663 80.9148 44.4249 80.8123 44.2271C80.9441 44.2344 81.087 44.2418 81.2408 44.2491C81.402 44.2491 81.5485 44.2491 81.6804 44.2491C81.8123 44.2491 81.9002 44.2491 81.9441 44.2491C82.0247 44.2491 82.0797 44.2381 82.109 44.2161C82.1456 44.1941 82.1639 44.1539 82.1639 44.0952V41.8865H83.8123V44.1282ZM80.3397 35.5458V37.5788H78.6804V35.5458H80.3397ZM84.4166 36.9524V39.7766H82.8232V38.315H76.2848V39.7766H74.7573V36.9524H84.4166ZM77.076 35.6007C77.2225 35.7619 77.3617 35.9487 77.4936 36.1612C77.6328 36.3663 77.7353 36.5531 77.8013 36.7216L76.2738 37.381C76.2225 37.2125 76.1346 37.0147 76.0101 36.7875C75.8855 36.5604 75.7536 36.3553 75.6145 36.1722L77.076 35.6007ZM83.7243 36.1282C83.5192 36.3553 83.3251 36.5641 83.1419 36.7546C82.9588 36.9377 82.7939 37.0952 82.6474 37.2271L81.2738 36.7656C81.3617 36.6557 81.4496 36.5348 81.5375 36.4029C81.6254 36.2711 81.7097 36.1392 81.7903 36.0073C81.8709 35.8681 81.9368 35.7436 81.9881 35.6337L83.7243 36.1282ZM91.4386 37.348V38.8095H86.043V37.348H91.4386ZM89.5925 44.4469C89.5925 44.8059 89.5522 45.0843 89.4716 45.2821C89.391 45.4872 89.2445 45.6484 89.032 45.7656C88.8196 45.8755 88.5632 45.9451 88.2628 45.9744C87.9698 46.011 87.6181 46.0293 87.2079 46.0293C87.1786 45.8315 87.1199 45.5971 87.032 45.326C86.9514 45.0623 86.8635 44.8352 86.7683 44.6447C86.9661 44.652 87.1712 44.6593 87.3837 44.6667C87.5961 44.6667 87.739 44.6667 87.8123 44.6667C87.8928 44.6593 87.9478 44.641 87.9771 44.6117C88.0137 44.5751 88.032 44.5202 88.032 44.4469V35.5458H89.5925V44.4469ZM85.7903 43.0183C86.054 42.8718 86.369 42.685 86.7353 42.4579C87.109 42.2234 87.4862 41.9817 87.8672 41.7326L88.3727 42.9634C88.065 43.1978 87.7427 43.4359 87.4057 43.6777C87.076 43.9194 86.7536 44.1465 86.4386 44.359L85.7903 43.0183ZM87.2848 39.1941C87.4533 39.4799 87.6144 39.7949 87.7683 40.1392C87.9295 40.4762 88.0394 40.7729 88.098 41.0293L86.8342 41.6227C86.8049 41.4542 86.75 41.2601 86.6694 41.0403C86.5961 40.8205 86.5082 40.5971 86.4057 40.37C86.3104 40.1355 86.2079 39.9194 86.098 39.7216L87.2848 39.1941ZM91.6144 39.6007C91.4093 39.9451 91.2115 40.2894 91.021 40.6337C90.8379 40.9707 90.6657 41.2564 90.5046 41.4908L89.4057 41.0183C89.5009 40.8352 89.5961 40.63 89.6914 40.4029C89.7939 40.1758 89.8892 39.9487 89.9771 39.7216C90.065 39.4872 90.1346 39.2674 90.1859 39.0623L91.6144 39.6007ZM90.8452 35.5678C91.0357 35.7509 91.2225 35.9597 91.4057 36.1941C91.5961 36.4286 91.739 36.641 91.8342 36.8315L90.6694 37.5348C90.5961 37.3443 90.4679 37.1245 90.2848 36.8755C90.109 36.6264 89.9295 36.4029 89.7463 36.2051L90.8452 35.5678ZM89.4716 41.4249C89.706 41.5861 89.9551 41.7729 90.2188 41.9854C90.4899 42.1905 90.7427 42.3993 90.9771 42.6117C91.2188 42.8242 91.413 43.0183 91.5595 43.1941L90.5265 44.304C90.3947 44.1209 90.2152 43.9158 89.9881 43.6886C89.761 43.4615 89.5155 43.2381 89.2518 43.0183C88.9954 42.7912 88.75 42.5861 88.5155 42.4029L89.4716 41.4249ZM96.3177 37.5238V38.9963H92.2079V37.5238H96.3177ZM93.9112 35.7656C93.8232 36.5421 93.6987 37.304 93.5375 38.0513C93.3764 38.7912 93.1749 39.4835 92.9331 40.1282C92.6987 40.7656 92.4166 41.3223 92.087 41.7985C92.0137 41.696 91.9038 41.5678 91.7573 41.4139C91.6108 41.2601 91.4569 41.1062 91.2958 40.9524C91.1419 40.7985 91.0064 40.6777 90.8892 40.5897C91.1676 40.2015 91.3983 39.7436 91.5815 39.2161C91.7646 38.6813 91.9148 38.1026 92.032 37.4799C92.1492 36.8498 92.2372 36.2051 92.2958 35.5458L93.9112 35.7656ZM93.1309 38.7875C93.2994 39.6081 93.5265 40.3883 93.8123 41.1282C94.1053 41.8681 94.4716 42.5348 94.9112 43.1282C95.358 43.7143 95.8928 44.1905 96.5155 44.5568C96.391 44.6593 96.2518 44.7949 96.098 44.9634C95.9441 45.1392 95.7976 45.3187 95.6584 45.5018C95.5192 45.685 95.4057 45.8535 95.3177 46.0073C94.6511 45.5311 94.0943 44.9451 93.6474 44.2491C93.2005 43.5458 92.8306 42.7546 92.5375 41.8755C92.2518 40.989 92.0137 40.0403 91.8232 39.0293L93.1309 38.7875ZM95.9551 38.37C95.8159 39.5641 95.5778 40.663 95.2408 41.6667C94.9038 42.6703 94.435 43.5495 93.8342 44.304C93.2335 45.0513 92.4643 45.641 91.5265 46.0733C91.446 45.9267 91.3361 45.7619 91.1969 45.5788C91.065 45.4029 90.9221 45.2271 90.7683 45.0513C90.6144 44.8828 90.4643 44.7363 90.3177 44.6117C91.2555 44.2674 92.0101 43.7692 92.5815 43.1172C93.1529 42.4579 93.5888 41.6667 93.8892 40.7436C94.1895 39.8132 94.402 38.7619 94.5265 37.5897L95.9551 38.37ZM107.362 38.5897V39.8205H101.274V38.5897H107.362ZM107.702 40.1282V41.4029H101.065V40.1282H107.702ZM106.12 41.6667V42.7985H102.45V41.6667H106.12ZM102.713 37.1941C102.794 37.3846 102.878 37.5971 102.966 37.8315C103.061 38.0659 103.131 38.2637 103.175 38.4249L101.922 38.8205C101.878 38.652 101.816 38.4469 101.735 38.2051C101.662 37.956 101.589 37.7289 101.516 37.5238L102.713 37.1941ZM104.625 37.1282C104.684 37.3333 104.739 37.5568 104.79 37.7985C104.842 38.0403 104.878 38.2454 104.9 38.4139L103.592 38.6886C103.585 38.5201 103.56 38.3077 103.516 38.0513C103.479 37.7949 103.439 37.5604 103.395 37.348L104.625 37.1282ZM107.494 36.7656C107.054 36.8535 106.581 36.9304 106.076 36.9963C105.57 37.0549 105.05 37.1062 104.516 37.1502C103.981 37.1941 103.446 37.2271 102.911 37.2491C102.384 37.2711 101.871 37.2857 101.373 37.293C101.358 37.1245 101.314 36.9267 101.241 36.6996C101.175 36.4652 101.105 36.2711 101.032 36.1172C101.523 36.1026 102.021 36.0806 102.527 36.0513C103.032 36.022 103.53 35.9854 104.021 35.9414C104.512 35.8974 104.977 35.8498 105.417 35.7985C105.864 35.7399 106.263 35.674 106.614 35.6007L107.494 36.7656ZM103.79 42.5678C104.039 42.9414 104.365 43.2747 104.768 43.5678C105.171 43.8535 105.644 44.0916 106.186 44.2821C106.735 44.4725 107.34 44.6154 107.999 44.7106C107.838 44.8645 107.669 45.0696 107.494 45.326C107.318 45.5824 107.179 45.8095 107.076 46.0073C106.006 45.7875 105.098 45.4249 104.351 44.9194C103.603 44.4066 102.995 43.7473 102.527 42.9414L103.79 42.5678ZM107.329 37.2821C107.124 37.6117 106.915 37.9377 106.702 38.2601C106.497 38.5824 106.31 38.8535 106.142 39.0733L105.043 38.6996C105.146 38.5311 105.248 38.3407 105.351 38.1282C105.461 37.9158 105.56 37.6996 105.647 37.4799C105.735 37.2601 105.809 37.0586 105.867 36.8755L107.329 37.2821ZM106.098 41.6667L106.351 41.6337L107.208 41.9634C107.01 42.7546 106.71 43.4212 106.307 43.9634C105.904 44.4982 105.42 44.9304 104.856 45.2601C104.299 45.5897 103.673 45.8425 102.977 46.0183C102.926 45.9084 102.849 45.7766 102.746 45.6227C102.651 45.4762 102.545 45.3297 102.428 45.1832C102.318 45.0366 102.219 44.9231 102.131 44.8425C102.776 44.718 103.347 44.5348 103.845 44.293C104.343 44.0513 104.757 43.7326 105.087 43.337C105.424 42.9414 105.666 42.4506 105.812 41.8645V41.6667H106.098ZM104.032 39.359C104.003 39.8425 103.959 40.3297 103.9 40.8205C103.842 41.3114 103.754 41.7985 103.636 42.2821C103.519 42.7582 103.354 43.2198 103.142 43.6667C102.937 44.1062 102.669 44.5202 102.34 44.9084C102.01 45.2967 101.603 45.6484 101.12 45.9634C101.017 45.7729 100.871 45.5678 100.68 45.348C100.49 45.1282 100.299 44.9487 100.109 44.8095C100.534 44.5531 100.886 44.2637 101.164 43.9414C101.45 43.6117 101.677 43.2637 101.845 42.8974C102.014 42.5238 102.138 42.1392 102.219 41.7436C102.307 41.348 102.369 40.9487 102.406 40.5458C102.45 40.1429 102.483 39.7473 102.505 39.359H104.032ZM97.3617 41.326C97.8086 41.2381 98.3397 41.1209 98.9551 40.9744C99.5705 40.8278 100.19 40.6777 100.812 40.5238L100.999 41.9414C100.42 42.1026 99.8342 42.2637 99.2408 42.4249C98.6474 42.5861 98.0943 42.7363 97.5815 42.8755L97.3617 41.326ZM100.9 37.5678V39.0293H97.5265V37.5678H100.9ZM100.021 44.359C100.021 44.7033 99.9881 44.9817 99.9221 45.1941C99.8562 45.4066 99.728 45.5751 99.5375 45.6996C99.3544 45.8242 99.1309 45.9048 98.8672 45.9414C98.6108 45.9854 98.2994 46.0073 97.9331 46.0073C97.9185 45.8095 97.8709 45.5641 97.7903 45.2711C97.717 44.9854 97.6328 44.7363 97.5375 44.5238C97.7134 44.5311 97.8819 44.5385 98.043 44.5458C98.2042 44.5458 98.3178 44.5421 98.3837 44.5348C98.4496 44.5348 98.4936 44.5238 98.5156 44.5018C98.5449 44.4799 98.5595 44.4322 98.5595 44.359V35.5678H100.021V44.359Z" fill="#FFBF00"/>
</svg>
