<svg width="191" height="94" viewBox="0 0 191 94" fill="none" xmlns="http://www.w3.org/2000/svg">
<path d="M53.0298 17.4276H53.1061C53.525 16.6331 53.9811 15.8755 54.4393 15.1919L58.2097 9.62423H65.179L58.5152 17.1258L66.1324 28.1481H59.0105L54.4785 20.5337L53.0318 22.3526V28.1481H47.243V1.25428H53.0318V17.4296L53.0298 17.4276Z" fill="black"/>
<path d="M74.2409 4.47345C74.2409 6.0645 73.0604 7.35171 71.1184 7.35171C69.29 7.35171 68.1116 6.0645 68.1116 4.47345C68.1116 2.8824 69.3292 1.59519 71.1948 1.59519C73.0604 1.59519 74.2037 2.84545 74.2409 4.47345ZM68.2622 28.1483V9.62434H74.051V28.1483H68.2622Z" fill="black"/>
<path d="M78.6965 15.5347C78.6965 13.2231 78.6202 11.2912 78.5438 9.62627H83.5711L83.8373 12.2027H83.9508C84.7123 10.9915 86.5779 9.20952 89.7004 9.20952C93.508 9.20952 96.3642 11.747 96.3642 17.2017V28.1502H90.5754V17.8854C90.5754 15.4998 89.7375 13.8698 87.6428 13.8698C86.0434 13.8698 85.0921 14.9681 84.6731 16.0295C84.5204 16.4072 84.4833 16.9389 84.4833 17.4686V28.1502H78.6965V15.5347Z" fill="black"/>
<path d="M107.256 4.6253V9.62633H111.407V13.8698H107.256V20.5748C107.256 22.8105 107.828 23.8329 109.541 23.8329C110.34 23.8329 110.721 23.7959 111.254 23.6809L111.291 28.0373C110.567 28.3022 109.159 28.53 107.56 28.53C105.694 28.53 104.134 27.8854 103.181 26.939C102.114 25.8407 101.581 24.0607 101.581 21.4473V13.8719H99.1068V9.62838H101.581V6.18145L107.254 4.62735L107.256 4.6253Z" fill="black"/>
<path d="M132.962 18.6778C132.962 25.4587 128.127 28.5648 123.137 28.5648C117.691 28.5648 113.503 25.0029 113.503 19.0186C113.503 13.0342 117.464 9.17047 123.48 9.17047C129.155 9.17047 132.962 13.0732 132.962 18.6778ZM119.482 18.8687C119.482 22.0508 120.815 24.4363 123.29 24.4363C125.574 24.4363 126.984 22.2007 126.984 18.8297C126.984 16.1033 125.917 13.299 123.29 13.299C120.663 13.299 119.482 16.1403 119.482 18.8666V18.8687Z" fill="black"/>
<path d="M136.541 15.5347C136.541 13.2231 136.464 11.2912 136.388 9.62627H141.415L141.682 12.2027H141.795C142.557 10.9915 144.422 9.20952 147.545 9.20952C151.352 9.20952 154.208 11.747 154.208 17.2017V28.1502H148.42V17.8854C148.42 15.4998 147.582 13.8698 145.487 13.8698C143.888 13.8698 142.936 14.9681 142.517 16.0295C142.365 16.4072 142.328 16.9389 142.328 17.4686V28.1502H136.539V15.5347H136.541Z" fill="black"/>
<path d="M163.314 20.7246C163.466 23.1102 165.864 24.2475 168.57 24.2475C170.549 24.2475 172.148 23.9827 173.711 23.453L174.472 27.3557C172.569 28.1523 170.246 28.53 167.732 28.53C161.411 28.53 157.793 24.8942 157.793 19.0987C157.793 14.4015 160.726 9.21161 167.2 9.21161C173.215 9.21161 175.5 13.8718 175.5 18.4541C175.5 19.4395 175.386 20.3099 175.31 20.7267H163.314V20.7246ZM170.13 16.785C170.13 15.3828 169.521 13.0342 166.855 13.0342C164.418 13.0342 163.427 15.2699 163.276 16.785H170.13Z" fill="black"/>
<path d="M43.3735 9.70848C40.3398 7.9614 37.3164 7.34141 34.0578 8.12564C34.0805 7.91008 34.095 7.69041 34.095 7.46869C34.095 4.0854 31.3399 1.34675 27.9409 1.34675C26.8058 1.34675 25.7451 1.6588 24.8309 2.19052C23.3058 0.829398 21.2895 0 19.0772 0C15.2056 0 11.9304 2.53952 10.8449 6.03777C9.95958 5.70109 9.00407 5.51016 8.0011 5.51016C3.58058 5.51016 0 9.07206 0 13.4695C0 16.7809 2.03278 19.6161 4.92407 20.8171C4.92407 25.8879 9.05773 30 14.1572 30C16.6337 30 18.8811 29.0269 20.5383 27.4482C21.4484 27.9758 22.503 28.2858 23.6339 28.2858C26.131 28.2858 28.2752 26.8035 29.2411 24.6787C32.9826 23.5065 35.6964 20.0287 35.6964 15.9187C35.6964 14.808 35.4983 13.7446 35.1351 12.7592C37.3041 11.0429 39.6856 10.1519 43.3735 9.71053V9.70848Z" fill="#FFBF00"/>
<rect y="50" width="191" height="44" rx="22" fill="black"/>
<path d="M35.04 66.192V68.464H21.056V66.192H35.04ZM29.168 64.32V79.52H26.704V64.32H29.168ZM28.912 72.352C28.5173 73.0667 28.0693 73.7547 27.568 74.416C27.0773 75.0773 26.5333 75.6907 25.936 76.256C25.3493 76.8213 24.72 77.3387 24.048 77.808C23.3867 78.2667 22.688 78.6667 21.952 79.008C21.8347 78.8053 21.68 78.576 21.488 78.32C21.296 78.0747 21.0933 77.8347 20.88 77.6C20.6773 77.3547 20.4853 77.152 20.304 76.992C21.008 76.7253 21.6907 76.4053 22.352 76.032C23.0133 75.648 23.632 75.2213 24.208 74.752C24.7947 74.2827 25.3227 73.7813 25.792 73.248C26.2613 72.7147 26.656 72.1707 26.976 71.616L28.912 72.352ZM29.072 71.792C29.5093 72.4853 30.0693 73.152 30.752 73.792C31.4347 74.432 32.1973 75.0133 33.04 75.536C33.8827 76.0587 34.7627 76.4853 35.68 76.816C35.488 76.976 35.28 77.184 35.056 77.44C34.8427 77.696 34.6347 77.9573 34.432 78.224C34.24 78.4907 34.08 78.736 33.952 78.96C33.024 78.5227 32.1387 77.9787 31.296 77.328C30.464 76.6773 29.696 75.9467 28.992 75.136C28.2987 74.3147 27.6907 73.4507 27.168 72.544L29.072 71.792ZM24.336 69.712C24.5707 69.904 24.832 70.1173 25.12 70.352C25.4187 70.5867 25.7013 70.8213 25.968 71.056C26.2347 71.2907 26.4533 71.4987 26.624 71.68L25.088 73.328C24.9387 73.136 24.736 72.9173 24.48 72.672C24.224 72.416 23.952 72.16 23.664 71.904C23.3867 71.6373 23.1253 71.3973 22.88 71.184L24.336 69.712ZM25.776 68.832C25.4773 69.9947 25.0453 71.0667 24.48 72.048C23.9253 73.0293 23.2747 73.8347 22.528 74.464C22.4 74.3253 22.224 74.16 22 73.968C21.7867 73.7653 21.5627 73.5733 21.328 73.392C21.104 73.2 20.9067 73.0507 20.736 72.944C21.4293 72.4427 22.0107 71.7973 22.48 71.008C22.96 70.208 23.3067 69.3387 23.52 68.4L25.776 68.832ZM32.016 69.872C32.336 70.1067 32.6987 70.3787 33.104 70.688C33.5093 70.9867 33.904 71.2853 34.288 71.584C34.6827 71.872 35.0027 72.128 35.248 72.352L33.648 73.952C33.424 73.7173 33.1253 73.4453 32.752 73.136C32.3893 72.8267 32.0053 72.5067 31.6 72.176C31.2053 71.8453 30.8427 71.5467 30.512 71.28L32.016 69.872ZM33.296 68.816C33.072 69.7547 32.752 70.6293 32.336 71.44C31.92 72.24 31.4507 72.9013 30.928 73.424C30.7787 73.3067 30.5813 73.1733 30.336 73.024C30.1013 72.864 29.856 72.7147 29.6 72.576C29.344 72.4267 29.1253 72.3093 28.944 72.224C29.4667 71.7867 29.904 71.232 30.256 70.56C30.6187 69.8773 30.88 69.1573 31.04 68.4L33.296 68.816ZM48.88 69.792V71.936H40.512V69.792H48.88ZM48.88 73.184V75.328H40.512V73.184H48.88ZM48.88 76.592V78.736H40.512V76.592H48.88ZM50.88 66.336V79.504H48.4V68.56H41.28V79.504H38.928V66.336H50.88ZM46.24 64.592C46.0373 65.1467 45.824 65.68 45.6 66.192C45.376 66.704 45.1733 67.1413 44.992 67.504L42.848 67.136C42.9333 66.848 43.008 66.544 43.072 66.224C43.1467 65.8933 43.2107 65.5627 43.264 65.232C43.328 64.9013 43.3707 64.592 43.392 64.304L46.24 64.592ZM67.408 65.216V79.344H64.88V67.568H58.256V79.344H55.856V65.216H67.408ZM65.936 70.496V72.8H57.504V70.496H65.936ZM65.936 75.92V78.272H57.504V75.92H65.936ZM85.552 67.28V69.648H71.28V67.28H85.552ZM82.72 74.608V76.976H74V74.608H82.72ZM79.632 64.32V79.52H77.152V64.32H79.632ZM77.424 68.752C77.072 69.904 76.6507 71.0027 76.16 72.048C75.6693 73.0933 75.1093 74.0533 74.48 74.928C73.8507 75.8027 73.1467 76.5653 72.368 77.216C72.24 77.024 72.0747 76.8107 71.872 76.576C71.6693 76.3413 71.4613 76.112 71.248 75.888C71.0347 75.664 70.8373 75.4773 70.656 75.328C71.36 74.816 72.0107 74.176 72.608 73.408C73.2053 72.64 73.728 71.808 74.176 70.912C74.6347 70.0053 75.0027 69.088 75.28 68.16L77.424 68.752ZM81.456 68.208C81.7333 69.0933 82.096 69.968 82.544 70.832C82.992 71.6853 83.5093 72.48 84.096 73.216C84.6933 73.9413 85.3333 74.56 86.016 75.072C85.824 75.232 85.6053 75.4347 85.36 75.68C85.1253 75.9147 84.9013 76.16 84.688 76.416C84.4747 76.672 84.2987 76.912 84.16 77.136C83.424 76.496 82.7573 75.744 82.16 74.88C81.5627 74.0053 81.0293 73.0507 80.56 72.016C80.0907 70.9813 79.68 69.9093 79.328 68.8L81.456 68.208ZM94.544 66.928V77.888H89.6V75.856H92.448V68.944H89.6V66.928H94.544ZM90.352 66.928V79.024H88.256V66.928H90.352ZM93.44 71.104V73.104H89.536V71.104H93.44ZM92.976 64.672C92.784 65.2373 92.5867 65.792 92.384 66.336C92.192 66.88 92.016 67.344 91.856 67.728L90 67.328C90.064 67.04 90.1227 66.72 90.176 66.368C90.24 66.016 90.2933 65.664 90.336 65.312C90.3893 64.9493 90.4213 64.6187 90.432 64.32L92.976 64.672ZM101.104 66.768V68.88H96.56V66.768H101.104ZM102.448 66.768C102.448 66.768 102.448 66.832 102.448 66.96C102.448 67.088 102.448 67.232 102.448 67.392C102.448 67.552 102.443 67.68 102.432 67.776C102.389 69.5573 102.341 71.072 102.288 72.32C102.235 73.568 102.171 74.6027 102.096 75.424C102.021 76.2347 101.931 76.8747 101.824 77.344C101.717 77.8027 101.579 78.144 101.408 78.368C101.163 78.72 100.907 78.96 100.64 79.088C100.373 79.2267 100.064 79.328 99.712 79.392C99.392 79.4453 98.9973 79.472 98.528 79.472C98.0693 79.472 97.6 79.4667 97.12 79.456C97.1093 79.1467 97.0293 78.7733 96.88 78.336C96.7413 77.8987 96.5653 77.52 96.352 77.2C96.864 77.2427 97.3387 77.2693 97.776 77.28C98.224 77.2907 98.5547 77.296 98.768 77.296C98.928 77.296 99.056 77.2747 99.152 77.232C99.2587 77.1893 99.3653 77.1147 99.472 77.008C99.6 76.8693 99.7067 76.5867 99.792 76.16C99.888 75.7227 99.9627 75.1147 100.016 74.336C100.08 73.5467 100.133 72.5653 100.176 71.392C100.229 70.208 100.272 68.8107 100.304 67.2V66.768H102.448ZM98.688 64.896C98.4747 65.6747 98.2133 66.4587 97.904 67.248C97.6053 68.0267 97.28 68.7627 96.928 69.456C96.5867 70.1493 96.2347 70.752 95.872 71.264C95.7333 71.136 95.5467 70.9867 95.312 70.816C95.0773 70.6347 94.8373 70.464 94.592 70.304C94.3467 70.1333 94.1333 70 93.952 69.904C94.3147 69.4667 94.6507 68.9493 94.96 68.352C95.28 67.7547 95.5627 67.1147 95.808 66.432C96.064 65.7387 96.2773 65.0507 96.448 64.368L98.688 64.896ZM97.456 70.624C97.7013 70.9867 97.9627 71.3867 98.24 71.824C98.528 72.2507 98.8 72.672 99.056 73.088C99.3227 73.4933 99.5307 73.856 99.68 74.176L97.712 75.376C97.584 75.0453 97.3973 74.6667 97.152 74.24C96.9173 73.8133 96.6667 73.376 96.4 72.928C96.1333 72.4693 95.8773 72.0427 95.632 71.648L97.456 70.624Z" fill="white"/>
<path d="M117.808 65.216V79.344H115.28V67.568H108.656V79.344H106.256V65.216H117.808ZM116.336 70.496V72.8H107.904V70.496H116.336ZM116.336 75.92V78.272H107.904V75.92H116.336ZM130.176 72.32V79.52H127.76V72.32H130.176ZM126.688 71.184H130.736V70.496H126.688V71.184ZM133.104 68.896V72.784H124.464V68.896H133.104ZM133.664 73.536V75.6H125.232V78.816H122.864V73.536H133.664ZM134.976 76.8C134.976 77.3013 134.912 77.7013 134.784 78C134.656 78.3093 134.411 78.5493 134.048 78.72C133.685 78.88 133.28 78.976 132.832 79.008C132.384 79.04 131.888 79.056 131.344 79.056C131.291 78.736 131.189 78.3787 131.04 77.984C130.901 77.5787 130.757 77.232 130.608 76.944C130.8 76.9547 131.008 76.9653 131.232 76.976C131.467 76.976 131.68 76.976 131.872 76.976C132.064 76.976 132.192 76.976 132.256 76.976C132.373 76.976 132.453 76.96 132.496 76.928C132.549 76.896 132.576 76.8373 132.576 76.752V73.536H134.976V76.8ZM129.92 64.304V67.264H127.504V64.304H129.92ZM135.856 66.352V70.464H133.536V68.336H124.016V70.464H121.792V66.352H135.856ZM125.168 64.384C125.381 64.6187 125.584 64.8907 125.776 65.2C125.979 65.4987 126.128 65.7707 126.224 66.016L124 66.976C123.925 66.7307 123.797 66.4427 123.616 66.112C123.435 65.7813 123.243 65.4827 123.04 65.216L125.168 64.384ZM134.848 65.152C134.549 65.4827 134.267 65.7867 134 66.064C133.733 66.3307 133.493 66.56 133.28 66.752L131.28 66.08C131.408 65.92 131.536 65.744 131.664 65.552C131.792 65.36 131.915 65.168 132.032 64.976C132.149 64.7733 132.245 64.592 132.32 64.432L134.848 65.152ZM146.08 66.928V69.056H138.224V66.928H146.08ZM143.392 77.264C143.392 77.7867 143.333 78.192 143.216 78.48C143.099 78.7787 142.885 79.0133 142.576 79.184C142.267 79.344 141.893 79.4453 141.456 79.488C141.029 79.5413 140.517 79.568 139.92 79.568C139.877 79.28 139.792 78.9387 139.664 78.544C139.547 78.16 139.419 77.8293 139.28 77.552C139.568 77.5627 139.867 77.5733 140.176 77.584C140.485 77.584 140.693 77.584 140.8 77.584C140.917 77.5733 140.997 77.5467 141.04 77.504C141.093 77.4507 141.12 77.3707 141.12 77.264V64.304H143.392V77.264ZM137.856 75.184C138.24 74.9707 138.699 74.6987 139.232 74.368C139.776 74.0267 140.325 73.6747 140.88 73.312L141.616 75.104C141.168 75.4453 140.699 75.792 140.208 76.144C139.728 76.496 139.259 76.8267 138.8 77.136L137.856 75.184ZM140.032 69.616C140.277 70.032 140.512 70.4907 140.736 70.992C140.971 71.4827 141.131 71.9147 141.216 72.288L139.376 73.152C139.333 72.9067 139.253 72.624 139.136 72.304C139.029 71.984 138.901 71.6587 138.752 71.328C138.613 70.9867 138.464 70.672 138.304 70.384L140.032 69.616ZM146.336 70.208C146.037 70.7093 145.749 71.2107 145.472 71.712C145.205 72.2027 144.955 72.6187 144.72 72.96L143.12 72.272C143.259 72.0053 143.397 71.7067 143.536 71.376C143.685 71.0453 143.824 70.7147 143.952 70.384C144.08 70.0427 144.181 69.7227 144.256 69.424L146.336 70.208ZM145.216 64.336C145.493 64.6027 145.765 64.9067 146.032 65.248C146.309 65.5893 146.517 65.8987 146.656 66.176L144.96 67.2C144.853 66.9227 144.667 66.6027 144.4 66.24C144.144 65.8773 143.883 65.552 143.616 65.264L145.216 64.336ZM143.216 72.864C143.557 73.0987 143.92 73.3707 144.304 73.68C144.699 73.9787 145.067 74.2827 145.408 74.592C145.76 74.9013 146.043 75.184 146.256 75.44L144.752 77.056C144.56 76.7893 144.299 76.4907 143.968 76.16C143.637 75.8293 143.28 75.504 142.896 75.184C142.523 74.8533 142.165 74.5547 141.824 74.288L143.216 72.864ZM153.184 67.184V69.328H147.2V67.184H153.184ZM149.68 64.624C149.552 65.7547 149.371 66.864 149.136 67.952C148.901 69.0293 148.608 70.0373 148.256 70.976C147.915 71.904 147.504 72.7147 147.024 73.408C146.917 73.2587 146.757 73.072 146.544 72.848C146.331 72.624 146.107 72.4 145.872 72.176C145.648 71.952 145.451 71.776 145.28 71.648C145.685 71.0827 146.021 70.416 146.288 69.648C146.555 68.8693 146.773 68.0267 146.944 67.12C147.115 66.2027 147.243 65.264 147.328 64.304L149.68 64.624ZM148.544 69.024C148.789 70.2187 149.12 71.3547 149.536 72.432C149.963 73.5093 150.496 74.48 151.136 75.344C151.787 76.1973 152.565 76.8907 153.472 77.424C153.291 77.5733 153.088 77.7707 152.864 78.016C152.64 78.272 152.427 78.5333 152.224 78.8C152.021 79.0667 151.856 79.312 151.728 79.536C150.757 78.8427 149.947 77.9893 149.296 76.976C148.645 75.952 148.107 74.8 147.68 73.52C147.264 72.2293 146.917 70.848 146.64 69.376L148.544 69.024ZM152.656 68.416C152.453 70.1547 152.107 71.7547 151.616 73.216C151.125 74.6773 150.443 75.9573 149.568 77.056C148.693 78.144 147.573 79.0027 146.208 79.632C146.091 79.4187 145.931 79.1787 145.728 78.912C145.536 78.656 145.328 78.4 145.104 78.144C144.88 77.8987 144.661 77.6853 144.448 77.504C145.813 77.0027 146.912 76.2773 147.744 75.328C148.576 74.368 149.211 73.216 149.648 71.872C150.085 70.5173 150.395 68.9867 150.576 67.28L152.656 68.416ZM169.264 68.736V70.528H160.4V68.736H169.264ZM169.76 70.976V72.832H160.096V70.976H169.76ZM167.456 73.216V74.864H162.112V73.216H167.456ZM162.496 66.704C162.613 66.9813 162.736 67.2907 162.864 67.632C163.003 67.9733 163.104 68.2613 163.168 68.496L161.344 69.072C161.28 68.8267 161.189 68.528 161.072 68.176C160.965 67.8133 160.859 67.4827 160.752 67.184L162.496 66.704ZM165.28 66.608C165.365 66.9067 165.445 67.232 165.52 67.584C165.595 67.936 165.648 68.2347 165.68 68.48L163.776 68.88C163.765 68.6347 163.728 68.3253 163.664 67.952C163.611 67.5787 163.552 67.2373 163.488 66.928L165.28 66.608ZM169.456 66.08C168.816 66.208 168.128 66.32 167.392 66.416C166.656 66.5013 165.899 66.576 165.12 66.64C164.341 66.704 163.563 66.752 162.784 66.784C162.016 66.816 161.269 66.8373 160.544 66.848C160.523 66.6027 160.459 66.3147 160.352 65.984C160.256 65.6427 160.155 65.36 160.048 65.136C160.763 65.1147 161.488 65.0827 162.224 65.04C162.96 64.9973 163.685 64.944 164.4 64.88C165.115 64.816 165.792 64.7467 166.432 64.672C167.083 64.5867 167.664 64.4907 168.176 64.384L169.456 66.08ZM164.064 74.528C164.427 75.072 164.901 75.5573 165.488 75.984C166.075 76.4 166.763 76.7467 167.552 77.024C168.352 77.3013 169.232 77.5093 170.192 77.648C169.957 77.872 169.712 78.1707 169.456 78.544C169.2 78.9173 168.997 79.248 168.848 79.536C167.291 79.216 165.968 78.688 164.88 77.952C163.792 77.2053 162.907 76.2453 162.224 75.072L164.064 74.528ZM169.216 66.832C168.917 67.312 168.613 67.7867 168.304 68.256C168.005 68.7253 167.733 69.12 167.488 69.44L165.888 68.896C166.037 68.6507 166.187 68.3733 166.336 68.064C166.496 67.7547 166.64 67.44 166.768 67.12C166.896 66.8 167.003 66.5067 167.088 66.24L169.216 66.832ZM167.424 73.216L167.792 73.168L169.04 73.648C168.752 74.8 168.315 75.7707 167.728 76.56C167.141 77.3387 166.437 77.968 165.616 78.448C164.805 78.928 163.893 79.296 162.88 79.552C162.805 79.392 162.693 79.2 162.544 78.976C162.405 78.7627 162.251 78.5493 162.08 78.336C161.92 78.1227 161.776 77.9573 161.648 77.84C162.587 77.6587 163.419 77.392 164.144 77.04C164.869 76.688 165.472 76.224 165.952 75.648C166.443 75.072 166.795 74.3573 167.008 73.504V73.216H167.424ZM164.416 69.856C164.373 70.56 164.309 71.2693 164.224 71.984C164.139 72.6987 164.011 73.408 163.84 74.112C163.669 74.8053 163.429 75.4773 163.12 76.128C162.821 76.768 162.432 77.3707 161.952 77.936C161.472 78.5013 160.88 79.0133 160.176 79.472C160.027 79.1947 159.813 78.896 159.536 78.576C159.259 78.256 158.981 77.9947 158.704 77.792C159.323 77.4187 159.835 76.9973 160.24 76.528C160.656 76.048 160.987 75.5413 161.232 75.008C161.477 74.464 161.659 73.904 161.776 73.328C161.904 72.752 161.995 72.1707 162.048 71.584C162.112 70.9973 162.16 70.4213 162.192 69.856H164.416ZM154.704 72.72C155.355 72.592 156.128 72.4213 157.024 72.208C157.92 71.9947 158.821 71.776 159.728 71.552L160 73.616C159.157 73.8507 158.304 74.0853 157.44 74.32C156.576 74.5547 155.771 74.7733 155.024 74.976L154.704 72.72ZM159.856 67.248V69.376H154.944V67.248H159.856ZM158.576 77.136C158.576 77.6373 158.528 78.0427 158.432 78.352C158.336 78.6613 158.149 78.9067 157.872 79.088C157.605 79.2693 157.28 79.3867 156.896 79.44C156.523 79.504 156.069 79.536 155.536 79.536C155.515 79.248 155.445 78.8907 155.328 78.464C155.221 78.048 155.099 77.6853 154.96 77.376C155.216 77.3867 155.461 77.3973 155.696 77.408C155.931 77.408 156.096 77.4027 156.192 77.392C156.288 77.392 156.352 77.376 156.384 77.344C156.427 77.312 156.448 77.2427 156.448 77.136V64.336H158.576V77.136Z" fill="#FFBF00"/>
</svg>
